<svg width="23" height="22" viewBox="0 0 23 22" fill="none" xmlns="http://www.w3.org/2000/svg">
<rect x="0.25" y="0.25" width="22.5" height="21.5" rx="3.75" stroke="white" stroke-width="0.5"/>
<path d="M10.9734 15.9999C10.9371 15.9999 10.9012 15.9928 10.8679 15.979C10.8347 15.9653 10.8048 15.9451 10.7801 15.9199L5.56992 10.5883C5.53518 10.5527 5.51216 10.5084 5.50366 10.4606C5.49516 10.4129 5.50155 10.3639 5.52205 10.3195C5.54256 10.2752 5.57629 10.2374 5.61911 10.2109C5.66193 10.1844 5.71199 10.1703 5.76315 10.1703H8.27107C8.30873 10.1703 8.34594 10.178 8.38021 10.1927C8.41447 10.2075 8.44499 10.2291 8.4697 10.2559L10.211 12.151C10.3992 11.7705 10.7635 11.1369 11.4027 10.3648C12.3478 9.22333 14.1056 7.54463 17.1131 6.02921C17.1713 5.99993 17.2389 5.99233 17.3027 6.00791C17.3664 6.0235 17.4217 6.06113 17.4576 6.11339C17.4934 6.16564 17.5073 6.22872 17.4964 6.29016C17.4855 6.3516 17.4506 6.40695 17.3987 6.44526C17.3872 6.45375 16.2276 7.31761 14.8931 8.89992C13.6649 10.356 12.0322 12.737 11.2288 15.8108C11.2146 15.8648 11.1818 15.9128 11.1355 15.9471C11.0892 15.9814 11.0321 16 10.9733 16L10.9734 15.9999Z" fill="#FA6A00"/>
</svg>
