<svg width="32" height="32" viewBox="0 0 32 32" fill="none" xmlns="http://www.w3.org/2000/svg">
<path d="M25.0417 17.3333H17.3333V25.0417C17.3333 25.4505 17.1709 25.8427 16.8818 26.1318C16.5927 26.4209 16.2005 26.5833 15.7917 26.5833C15.3828 26.5833 14.9907 26.4209 14.7015 26.1318C14.4124 25.8427 14.25 25.4505 14.25 25.0417V17.3333H6.54167C6.13279 17.3333 5.74066 17.1709 5.45154 16.8818C5.16243 16.5927 5 16.2005 5 15.7917C5 15.3828 5.16243 14.9907 5.45154 14.7015C5.74066 14.4124 6.13279 14.25 6.54167 14.25H14.25V6.54167C14.25 6.13279 14.4124 5.74066 14.7015 5.45154C14.9907 5.16242 15.3828 5 15.7917 5C16.2005 5 16.5927 5.16242 16.8818 5.45154C17.1709 5.74066 17.3333 6.13279 17.3333 6.54167V14.25H25.0417C25.4505 14.25 25.8427 14.4124 26.1318 14.7015C26.4209 14.9907 26.5833 15.3828 26.5833 15.7917C26.5833 16.2005 26.4209 16.5927 26.1318 16.8818C25.8427 17.1709 25.4505 17.3333 25.0417 17.3333Z" fill="black"/>
</svg>
