<svg width="11" height="19" viewBox="0 0 11 19" fill="none" xmlns="http://www.w3.org/2000/svg">
<path d="M10.5115 1.36712C10.6663 1.51626 10.7892 1.69341 10.873 1.88842C10.9569 2.08344 11 2.2925 11 2.50363C11 2.71476 10.9569 2.92381 10.873 3.11883C10.7892 3.31385 10.6663 3.491 10.5115 3.64014L4.02997 9.89496L10.5115 16.1498C10.8238 16.4512 10.9993 16.86 10.9993 17.2863C10.9993 17.7126 10.8238 18.1214 10.5115 18.4228C10.1991 18.7242 9.7755 18.8936 9.33378 18.8936C8.89206 18.8936 8.46843 18.7242 8.15608 18.4228L0.488524 11.0234C0.333664 10.8743 0.210803 10.6971 0.126975 10.5021C0.043148 10.3071 0 10.098 0 9.8869C0 9.67577 0.043148 9.46671 0.126975 9.27169C0.210803 9.07668 0.333664 8.89953 0.488524 8.75039L8.15608 1.351C8.79087 0.738413 9.85998 0.738413 10.5115 1.36712Z" fill="white"/>
</svg>
